<?xml version="1.0" encoding="iso-8859-1"?>
<!-- Generator: Adobe Illustrator 16.0.0, SVG Export Plug-In . SVG Version: 6.00 Build 0)  -->
<!DOCTYPE svg PUBLIC "-//W3C//DTD SVG 1.1//EN" "http://www.w3.org/Graphics/SVG/1.1/DTD/svg11.dtd">
<svg version="1.1" id="Capa_1" xmlns="http://www.w3.org/2000/svg" xmlns:xlink="http://www.w3.org/1999/xlink" x="0px" y="0px"
	 width="487.015px" height="487.015px" viewBox="0 0 487.015 487.015" style="enable-background:new 0 0 487.015 487.015;"
	 xml:space="preserve">
<g>
	<path d="M484.681,213.47c-4.498-40.879-19.541-78.226-43.869-111.5c-39.194-53.578-91.611-86.336-157.067-97.74
		C270.694,1.959,257.347,1.368,244.137,0c-0.878,0-1.75,0-2.622,0c-12.342,1.351-24.737,2.246-36.993,4.129
		C78.665,23.442-12.331,142.612,2.056,269.395c6.865,60.515,32.214,112.121,77.215,153.278
		c53.504,48.941,117.062,69.925,189.118,63.079c55.301-5.271,103.557-27.573,143.33-66.489
		C469.479,362.702,493.5,293.564,484.681,213.47z M433.4,338.072c-6.153-10.729-13.92-25.688-17.39-38.455
		c-5.042-18.537-17.147-0.627-18.158,11.479s-9.078,21.184-25.221,3.025c-16.143-18.157-19.169-14.126-24.211-14.126
		s-14.121,12.104-12.105,68.601c1.437,40.335,17.349,46.736,27.746,49.662c-19.305,13.264-41.488,23.714-66.385,30.038
		c-95.157,24.151-192.289-19.706-237.671-106.837c-42.28-81.185-21.681-173.053,21.299-223.616
		c1.156,9.094,2.288,17.263,3.23,25.464c2.562,22.39,0.629,44.487-3.939,66.496c-0.976,4.69-0.636,10.033,0.629,14.646
		c0.688,2.519,4.486,5.494,7.11,5.743c2.066,0.201,5.671-3.074,6.508-5.533c1.513-4.397,1.575-9.327,2.04-14.053
		c0.334-3.334,0.34-6.712,0.57-11.942c3.413,2.766,5.902,4.444,7.971,6.525c5.272,5.308,10.604,10.592,15.415,16.299
		c2.125,2.533,4.315,6.079,4.256,9.129c-0.133,6.525,2.73,10.962,6.227,16.086c3.886,5.698,5.636,12.862,8.136,19.459
		c1.046,2.766,1.265,5.887,2.512,8.547c2.663,5.697,6.688,9.599,13.607,10.024c7.279,0.461,10.004,3.286,11.05,10.733
		c-1.862,0.213-3.715,0.462-5.574,0.633c-8.878,0.846-13.278,4.924-12.927,13.879c0.694,17.785,7.11,33.324,20.312,45.678
		c3.638,3.411,7.503,6.579,11.038,10.072c8.074,7.974,10.891,17.342,7.01,28.354c-1.859,5.249-4.407,10.403-5.231,15.83
		c-0.839,5.514-0.845,11.508,0.432,16.904c1.324,5.615,0.756,17.897,6.555,16.881c10.258-1.803,16.154,0.219,16.952-11.266
		c0.151-2.188-0.018-2.459-0.6-4.48c-3.05-10.781,10.799-41.387,19.109-46.967c7.099-4.776,14.218-9.635,20.652-15.244
		c9.276-8.062,13.429-18.477,9.531-30.605c-3.668-11.414,0.623-19.795,8.603-27.143c8.14-7.489,13.477-16.119,12.921-27.645
		c-0.556-11.526-8.098-19.849-17.927-18.666c-4.806,0.567-9.413,2.872-14.098,4.45c-6.868,2.323-13.571,5.574-20.62,6.839
		c-9.88,1.75-15.968-4.705-20.375-12.543c-3.546-6.301-4.714-6.785-10.87-2.86c-5.193,3.322-10.376,6.667-15.755,9.67
		c-5.588,3.121-8.633,1.963-12.941-2.707c-2.548-2.755-6.076-4.693-9.351-6.679c-2.355-1.442-5.539-1.839-7.427-3.647
		c-2.53-2.447-6.059-6.076-5.701-8.729c0.417-3.115,4.025-7.014,7.172-8.29c5.423-2.199,11.585-2.554,17.401-3.818
		c3.097-0.674,6.239-1.375,9.167-2.53c4.008-1.599,3.839-4.232,0.771-6.703c-1.513-1.215-3.384-2.069-5.208-2.802
		c-8.866-3.57-17.782-6.984-26.643-10.568c-2.202-0.884-4.371-1.971-6.348-3.263c-5.571-3.661-6.242-7.692-1.188-12.152
		c19.955-17.602,43.264-22.756,63.916,0.63c6.398,7.243,10.737,16.275,16.778,23.876c4.752,5.994,10.223,11.621,16.263,16.246
		c2.489,1.9,8.086,2.223,10.87,0.697c4.146-2.27,4.291-7.444,2.205-11.759c-1.803-3.748-3.922-7.442-6.469-10.722
		c-11.733-15.117-10.926-44.576,12.055-56.867c7.687-4.117,15.441-8.453,19.112-19.497c-4.403,1.191-7.596,1.959-10.723,2.917
		c-17.451,5.405-5.302-7.613,2.726-9.883c4.876-1.386-4.362-5.122-4.362-5.122c0.219-0.381,6.135-2.069,12.714-4.874
		c4.527-1.924,9.155-4.09,12.915-7.152c2.436-1.998,3.375-5.816,4.977-8.819c-0.407-0.473-0.804-0.934-1.217-1.407
		c-4.611,0.621-9.216,1.303-13.838,1.824c-7.832,0.877-9.67-0.659-10.396-8.559c-0.503-5.394-6-8.334-11.133-5.568
		c-3.473,1.883-6.476,4.613-9.818,6.773c-7.716,4.998-13.485,3-16.512-5.618c-1.803-5.13-4.314-6.1-9.034-3.227
		c-2.374,1.442-4.354,3.549-6.768,4.897c-3.958,2.211-7.982,4.43-12.232,5.932c-4.14,1.466-9.126,2.53-11.943-2.01
		c-3.026-4.882-0.381-9.635,3.435-12.696c4.743-3.807,10.211-6.762,15.548-9.753c7.602-4.279,15.652-7.838,22.993-12.504
		c5.388-3.438,7.743-9.041,6-15.652c-1.472-5.58-5.205-7.468-10.374-4.909c-4.268,2.119-7.997,5.435-12.386,7.143
		c-3.207,1.229-7.203,1.242-10.646,0.636c-1.271-0.225-2.622-3.747-2.657-5.792c-0.024-1.179,2.367-3.227,3.892-3.476
		c10.604-1.652,21.255-3.05,31.921-4.265c1.41-0.154,3.529,0.718,4.413,1.844c7.045,8.893,16.875,13.208,27.216,16.287
		c8.688,2.58,9.947,1.351,11.142-7.764c11.159-2.627,22.502-7.803,33.732-0.721c6.23,3.921,11.91,8.917,17.183,14.091
		c1.307,1.288,0.509,5.272-0.118,7.838c-0.827,3.448-2.736,6.635-3.617,10.083c-1.702,6.682,2.618,11.904,9.522,11.795
		c2.181-0.047,4.356-0.494,6.549-0.603c6.378-0.298,8.642,2.143,8.057,8.583c-0.828,9.126,0.691,10.223,9.9,8.665
		c2.647-0.446,5.704,0.756,8.405,1.703c1.607,0.567,2.854,2.107,4.285,3.188c8.564,6.49,15.113,4.058,17.62-6.561
		c0.271-1.156,0.236-2.391,0.473-3.559c0.993-4.764,3.683-5.99,6.897-2.604c6.81,7.211,13.199,14.824,20.108,22.686
		c-7.424,6.809-7.672,15.084-6.028,23.193c1.826,9.021-0.55,16.858-4.108,24.805c-3.41,7.613-7.157,15.179-9.434,23.144
		c-3.404,11.955,0.461,17.416,12.602,20.062c11.585,2.529,13.482,4.858,13.92,16.184c0.585,15.448,8.518,26.11,22.071,32.914
		c3.009,1.501,6.206,2.642,9.279,3.919C451.83,289.775,445.032,314.559,433.4,338.072z"/>
</g>
<g>
</g>
<g>
</g>
<g>
</g>
<g>
</g>
<g>
</g>
<g>
</g>
<g>
</g>
<g>
</g>
<g>
</g>
<g>
</g>
<g>
</g>
<g>
</g>
<g>
</g>
<g>
</g>
<g>
</g>
</svg>
