<svg xmlns="http://www.w3.org/2000/svg" width="541.438" height="541.437"><path d="M270.719 0C121.203 0 0 121.203 0 270.719v270.468h259.375c3.76.155 7.545.25 11.344.25 149.515 0 270.719-121.203 270.719-270.718C541.438 121.203 420.233 0 270.717 0z" fill="#ff5900"/><path d="M270.719 62.844c-114.8 0-207.875 93.075-207.875 207.875v270.469h83.187v-270.25c0-68.642 55.64-124.313 124.281-124.313 68.642 0 124.282 55.671 124.282 124.313 0 68.64-55.64 124.28-124.281 124.28-25.096 0-48.463-7.458-68-20.25v89.344c13.09 8.056 42.976 13.745 78.03 14.032 110.33-5.034 198.25-96.054 198.25-207.625 0-114.8-93.074-207.875-207.874-207.875zM262 478.375c2.888.12 5.802.219 8.719.219 3.07 0 6.118-.087 9.156-.219H262z" fill="#fff"/></svg>