<svg width="200" height="200" viewBox="0 0 200 200" xmlns="http://www.w3.org/2000/svg"><title>trello-mark-white</title><path d="M25.001 0C11.193 0 0 11.2 0 25.001V175C0 188.807 11.2 200 25.001 200H175C188.807 200 200 188.8 200 174.999V25C200 11.193 188.8 0 174.999 0H25zm99.996 26C118.371 26 113 31.375 113 38.006v63.488c0 6.63 5.373 12.006 11.997 12.006h37.006c6.626 0 11.997-5.375 11.997-12.006V38.006C174 31.376 168.627 26 162.003 26h-37.006zm-87 0C31.371 26 26 31.369 26 37.992v113.516c0 6.623 5.373 11.992 11.997 11.992h37.006c6.626 0 11.997-5.369 11.997-11.992V37.992C87 31.369 81.627 26 75.003 26H37.997z" fill="#fff" fill-rule="evenodd"/></svg>